<svg xmlns="http://www.w3.org/2000/svg" xmlns:xlink="http://www.w3.org/1999/xlink" width="500" zoomAndPan="magnify" viewBox="0 0 375 374.999991" height="500" preserveAspectRatio="xMidYMid meet" version="1.0"><defs><g/><clipPath id="3ecf1fffad"><rect x="0" width="14" y="0" height="10"/></clipPath><clipPath id="449ebdef23"><path d="M 58 24.375 L 375 24.375 L 375 300 L 58 300 Z M 58 24.375 " clip-rule="nonzero"/></clipPath><clipPath id="07b6ee0362"><path d="M 0 47 L 303 47 L 303 350.625 L 0 350.625 Z M 0 47 " clip-rule="nonzero"/></clipPath></defs><rect x="-37.5" width="450" fill="#ffffff" y="-37.499999" height="449.999989" fill-opacity="1"/><rect x="-37.5" width="450" fill="#ffffff" y="-37.499999" height="449.999989" fill-opacity="1"/><g transform="matrix(1, 0, 0, 1, 211, 202)"><g clip-path="url(#3ecf1fffad)"><g fill="#000000" fill-opacity="1"><g transform="translate(0.82542, 7.804513)"><g><path d="M 0.515625 0 L 0.515625 -4.984375 L 1.40625 -4.984375 L 1.40625 -3.09375 L 1.46875 -3.078125 C 1.59375 -3.253906 1.738281 -3.390625 1.90625 -3.484375 C 2.082031 -3.578125 2.289062 -3.625 2.53125 -3.625 C 3.320312 -3.625 3.71875 -3.179688 3.71875 -2.296875 L 3.71875 0 L 2.8125 0 L 2.8125 -2.171875 C 2.8125 -2.421875 2.765625 -2.597656 2.671875 -2.703125 C 2.578125 -2.816406 2.425781 -2.875 2.21875 -2.875 C 1.96875 -2.875 1.769531 -2.789062 1.625 -2.625 C 1.476562 -2.457031 1.40625 -2.195312 1.40625 -1.84375 L 1.40625 0 Z M 0.515625 0 "/></g></g></g><g fill="#000000" fill-opacity="1"><g transform="translate(4.993697, 7.804513)"><g><path d="M 2.484375 0.0625 C 2.035156 0.0625 1.695312 -0.101562 1.46875 -0.4375 L 1.40625 -0.421875 L 1.40625 0 L 0.515625 0 L 0.515625 -4.984375 L 1.40625 -4.984375 L 1.40625 -3.140625 L 1.46875 -3.125 C 1.59375 -3.289062 1.738281 -3.414062 1.90625 -3.5 C 2.070312 -3.582031 2.269531 -3.625 2.5 -3.625 C 2.789062 -3.625 3.039062 -3.554688 3.25 -3.421875 C 3.46875 -3.285156 3.640625 -3.078125 3.765625 -2.796875 C 3.890625 -2.523438 3.953125 -2.1875 3.953125 -1.78125 C 3.953125 -1.375 3.890625 -1.03125 3.765625 -0.75 C 3.640625 -0.476562 3.46875 -0.273438 3.25 -0.140625 C 3.03125 -0.00390625 2.773438 0.0625 2.484375 0.0625 Z M 2.21875 -0.6875 C 2.476562 -0.6875 2.675781 -0.773438 2.8125 -0.953125 C 2.957031 -1.128906 3.03125 -1.40625 3.03125 -1.78125 C 3.03125 -2.15625 2.957031 -2.429688 2.8125 -2.609375 C 2.675781 -2.785156 2.476562 -2.875 2.21875 -2.875 C 1.96875 -2.875 1.765625 -2.78125 1.609375 -2.59375 C 1.460938 -2.414062 1.390625 -2.144531 1.390625 -1.78125 C 1.390625 -1.414062 1.460938 -1.140625 1.609375 -0.953125 C 1.765625 -0.773438 1.96875 -0.6875 2.21875 -0.6875 Z M 2.21875 -0.6875 "/></g></g></g><g fill="#000000" fill-opacity="1"><g transform="translate(9.255535, 7.804513)"><g><path d="M 0.515625 0 L 0.515625 -4.984375 L 1.40625 -4.984375 L 1.40625 -2.21875 L 1.5 -2.21875 L 2.53125 -3.5625 L 3.4375 -3.5625 L 3.4375 -3.484375 L 2.21875 -1.921875 L 3.5625 -0.078125 L 3.5625 0 L 2.625 0 L 1.5 -1.5 L 1.40625 -1.5 L 1.40625 0 Z M 0.515625 0 "/></g></g></g></g></g><g clip-path="url(#449ebdef23)"><path fill="#232323" d="M 155.789062 197.464844 L 120.621094 147.042969 C 108.972656 130.351562 48.265625 172.695312 59.914062 189.390625 L 125.355469 283.210938 C 137.003906 299.90625 160.1875 304.035156 176.882812 292.390625 C 181.632812 289.078125 185.324219 284.816406 187.964844 280.054688 L 187.996094 280.070312 C 187.996094 280.070312 188.074219 279.882812 188.140625 279.738281 C 188.984375 278.183594 189.730469 276.585938 190.339844 274.9375 C 203.804688 245.957031 275.121094 99.535156 374.726562 24.3125 C 374.726562 24.3125 249.296875 27.480469 155.789062 197.464844 Z M 155.789062 197.464844 " fill-opacity="1" fill-rule="nonzero"/></g><g clip-path="url(#07b6ee0362)"><path fill="#232323" d="M 270.222656 161.722656 C 273.871094 173.417969 275.832031 185.847656 275.832031 198.726562 C 275.832031 267.421875 219.949219 323.308594 151.253906 323.308594 C 82.558594 323.308594 26.671875 267.421875 26.671875 198.726562 C 26.671875 130.03125 82.558594 74.144531 151.253906 74.144531 C 175.539062 74.144531 198.203125 81.152344 217.382812 93.21875 C 225.007812 86.6875 232.421875 80.734375 239.1875 75.511719 C 214.375 57.753906 184.027344 47.257812 151.253906 47.257812 C 67.730469 47.257812 -0.214844 115.203125 -0.214844 198.726562 C -0.214844 282.246094 67.730469 350.199219 151.253906 350.199219 C 234.773438 350.199219 302.722656 282.246094 302.722656 198.726562 C 302.722656 175.042969 297.25 152.617188 287.515625 132.632812 C 282.339844 140.570312 276.460938 150.269531 270.222656 161.722656 Z M 270.222656 161.722656 " fill-opacity="1" fill-rule="nonzero"/></g></svg>